<svg width="30" height="30" viewBox="0 0 30 30" fill="none" xmlns="http://www.w3.org/2000/svg">
<path d="M21.5 7.5C21.5 11.0915 18.5915 14 15 14C11.4085 14 8.5 11.0915 8.5 7.5C8.5 3.90853 11.4085 1 15 1C18.5915 1 21.5 3.90853 21.5 7.5ZM1 26.25C1 25.3704 1.43268 24.5259 2.31797 23.7089C3.21006 22.8855 4.49345 22.1593 5.99453 21.558C8.99829 20.3547 12.6219 19.75 15 19.75C17.3781 19.75 21.0017 20.3547 24.0055 21.558C25.5066 22.1593 26.7899 22.8855 27.682 23.7089C28.5673 24.5259 29 25.3704 29 26.25V29H1V26.25Z" fill="white" stroke="white" stroke-width="2"/>
</svg>
