<svg width="150" height="150" viewBox="0 0 150 150" fill="none" xmlns="http://www.w3.org/2000/svg">
<path d="M75.002 141.312C73.1895 141.312 71.3772 140.875 69.6897 139.938L60.4394 135.5C58.1269 134.375 57.1271 131.562 58.2521 129.25C59.3771 126.937 62.1271 125.937 64.5021 127.062L73.9396 131.625C74.6271 132 75.2519 132 75.6894 131.75L125.689 104C126.189 103.75 126.502 103.188 126.502 102.625V47.5001C126.502 46.9376 126.189 46.4376 125.689 46.1251L75.6894 18.375C75.1894 18.125 74.627 18.125 74.1895 18.375L24.1895 46.1251C23.6895 46.3751 23.377 46.9376 23.377 47.5001V102.625C23.377 103.188 23.6895 103.688 24.1895 104L39.877 112.688C42.3145 114.063 45.1895 114 47.627 112.563C50.0645 111.125 51.502 108.625 51.502 105.812L51.5645 56.25C51.5645 53.6875 53.6895 51.5625 56.252 51.5625C58.8145 51.5625 60.9395 53.6875 60.9395 56.25L60.877 105.812C60.877 111.937 57.6895 117.5 52.377 120.625C47.0645 123.75 40.6897 123.812 35.3147 120.812L19.6271 112.125C16.1271 110.188 14.002 106.5 14.002 102.563V47.4375C14.002 43.5 16.1271 39.8125 19.6271 37.875L69.6271 10.125C72.9396 8.25 76.9397 8.25 80.2522 10.125L130.252 37.875C133.752 39.8125 135.877 43.5 135.877 47.4375V102.563C135.877 106.5 133.752 110.188 130.252 112.125L80.2522 139.875C78.6272 140.813 76.8145 141.312 75.002 141.312Z" fill="white"/>
<path d="M95.3125 104.688H84.375C75.75 104.688 68.75 97.6875 68.75 89.0625C68.75 86.5 70.875 84.375 73.4375 84.375C76 84.375 78.125 86.5 78.125 89.0625C78.125 92.5 80.9375 95.3125 84.375 95.3125H95.3125C98.75 95.3125 101.562 92.5 101.562 89.0625C101.562 85.625 98.75 82.8125 95.3125 82.8125H84.375C75.75 82.8125 68.75 75.8125 68.75 67.1875C68.75 58.5625 75.75 51.5625 84.375 51.5625H95.3125C103.937 51.5625 110.938 58.5625 110.938 67.1875C110.938 69.75 108.812 71.875 106.25 71.875C103.688 71.875 101.562 69.75 101.562 67.1875C101.562 63.75 98.75 60.9375 95.3125 60.9375H84.375C80.9375 60.9375 78.125 63.75 78.125 67.1875C78.125 70.625 80.9375 73.4375 84.375 73.4375H95.3125C103.937 73.4375 110.938 80.4375 110.938 89.0625C110.938 97.6875 103.937 104.688 95.3125 104.688Z" fill="white"/>
</svg>
