<svg width="150" height="150" viewBox="0 0 150 150" fill="none" xmlns="http://www.w3.org/2000/svg">
<path d="M74.9999 142.187C68.4374 142.187 61.8749 141.688 55.3749 140.688C47.9374 139.562 42.5624 133.25 42.4999 125.75V88.8749C42.4999 78.6249 50.8124 70.3124 61.0624 70.3124H88.8124C93.8749 70.3124 97.9999 66.1874 97.9999 61.1249V24.3125C97.9999 21.4375 95.9375 19.0625 93.0625 18.625C81 16.75 68.8124 16.75 56.7499 18.625C53.9374 19.0625 51.8125 21.4999 51.8125 24.3749V47.3125C51.8125 49.875 49.6875 52 47.125 52C44.5625 52 42.4375 49.875 42.4375 47.3125V24.3749C42.5 16.8749 47.875 10.5625 55.3125 9.4375C68.3125 7.4375 81.4999 7.4375 94.4999 9.4375C101.937 10.5625 107.312 16.8749 107.375 24.3749V61.2499C107.375 71.4999 99.0624 79.8124 88.8124 79.8124H61.0624C55.9999 79.8124 51.8749 83.9374 51.8749 88.9999V125.812C51.8749 128.687 53.9374 131.062 56.8124 131.5C68.8749 133.375 81.0624 133.375 93.1249 131.5C95.9374 131.062 98.0625 128.625 98.0625 125.75V102.813C98.0625 100.25 100.187 98.125 102.75 98.125C105.312 98.125 107.437 100.25 107.437 102.813V125.75C107.375 133.25 102 139.562 94.5625 140.688C88.125 141.688 81.5624 142.187 74.9999 142.187Z" fill="white"/>
<path d="M75 107.438C72.4375 107.438 70.3125 105.313 70.3125 102.751C70.3125 100.188 72.4375 98.0631 75 98.0631H125.75C128.625 98.0631 131 96.0005 131.437 93.1255C133.312 81.063 133.312 68.8755 131.437 56.813C131 53.938 128.625 51.8755 125.75 51.8755H102.813C100.25 51.8755 98.1251 49.7505 98.1251 47.188C98.1251 44.6255 100.25 42.5005 102.813 42.5005H125.75C133.25 42.563 139.563 47.938 140.688 55.3755C142.688 68.3755 142.688 81.5631 140.688 94.5631C139.563 102.001 133.25 107.376 125.75 107.438H75Z" fill="white"/>
<path d="M47.248 107.438H24.3106C16.8106 107.376 10.498 102.001 9.37305 94.5631C7.37305 81.5631 7.37305 68.3755 9.37305 55.3755C10.498 47.938 16.8106 42.563 24.3106 42.5005H74.998C77.5605 42.5005 79.6855 44.6255 79.6855 47.188C79.6855 49.7505 77.5605 51.8755 74.998 51.8755H24.2481C21.3731 51.8755 18.9981 53.938 18.5606 56.813C16.6856 68.8755 16.6856 81.063 18.5606 93.1255C18.9981 96.0005 21.3731 98.0631 24.2481 98.0631H47.1855C49.748 98.0631 51.873 100.188 51.873 102.751C51.873 105.313 49.8105 107.438 47.248 107.438Z" fill="white"/>
<path d="M64.5625 34.8749C62 34.8749 59.5 32.4374 59.5 29.8124C59.5 27.1874 61.9375 24.8125 64.5625 24.8125C65.75 24.8125 67.1877 25.375 68.0627 26.1875C69.0002 27.0625 69.6252 28.5624 69.6252 29.8124C69.6252 32.4374 67.1875 34.8749 64.5625 34.8749Z" fill="white"/>
<path d="M85.4367 125.187C82.8742 125.187 80.374 122.749 80.374 120.124C80.374 117.499 82.8117 115.062 85.4367 115.062C86.6242 115.062 88.0617 115.625 88.9367 116.437C89.8742 117.312 90.4992 118.812 90.4992 120.062C90.4367 122.749 87.9992 125.187 85.4367 125.187Z" fill="white"/>
</svg>
