<svg width="150" height="150" viewBox="0 0 150 150" fill="none" xmlns="http://www.w3.org/2000/svg">
<path d="M90.3002 101.499C86.9535 106.258 83.3065 110.799 79.3814 115.093C89.8314 125.237 99.5564 129.987 104.944 126.868C110.344 123.755 111.088 112.962 107.531 98.843C102.2 100.03 96.4064 100.93 90.3002 101.499ZM82.1127 102.043C77.3731 102.239 72.6273 102.239 67.8877 102.043C70.2439 105.118 72.6252 107.968 75.0002 110.568C77.3752 107.968 79.7502 105.118 82.1127 102.043ZM113.613 52.7055C130.269 57.4805 141.144 65.418 141.144 74.9992C141.144 84.5805 130.269 92.518 113.613 97.293C117.8 114.105 116.369 127.493 108.075 132.28C99.7752 137.074 87.4627 131.624 75.0002 119.593C62.5377 131.624 50.2252 137.074 41.9252 132.28C33.6314 127.493 32.1939 114.105 36.3877 97.293C19.7314 92.518 8.85645 84.5805 8.85645 74.9992C8.85645 65.418 19.7314 57.4805 36.3877 52.7055C32.2002 35.893 33.6314 22.5055 41.9252 17.718C50.2252 12.9242 62.5377 18.3742 75.0002 30.4055C87.4627 18.3742 99.7752 12.9242 108.075 17.718C116.369 22.5055 117.806 35.893 113.613 52.7055ZM107.531 51.1555C111.094 37.0305 110.344 26.243 104.95 23.1305C99.5564 20.0117 89.8314 24.7617 79.3877 34.9055C83.0814 38.9242 86.7564 43.493 90.3002 48.4992C96.4127 49.0617 102.2 49.9617 107.531 51.1555ZM42.4689 98.843C38.9064 112.968 39.6564 123.755 45.0502 126.868C50.4439 129.987 60.1689 125.237 70.6127 115.093C66.6898 110.798 63.0449 106.258 59.7002 101.499C53.9058 100.981 48.1503 100.094 42.4689 98.843ZM67.8877 47.9555C72.6273 47.7593 77.3731 47.7593 82.1127 47.9555C79.8659 45.0146 77.4928 42.1724 75.0002 39.4367C72.6252 42.0367 70.2502 44.8805 67.8877 47.9555ZM59.7002 48.4992C63.0489 43.7401 66.698 39.1996 70.6252 34.9055C60.1689 24.7617 50.4377 20.0117 45.0564 23.1305C39.6564 26.243 38.9127 37.0367 42.4689 51.1555C47.8002 49.968 53.5939 49.068 59.7002 48.4992ZM86.8377 95.4992C91.2867 88.9702 95.2415 82.1178 98.6689 74.9992C95.2415 67.8807 91.2867 61.0282 86.8377 54.4992C78.9571 53.9092 71.0433 53.9092 63.1627 54.4992C58.7137 61.0282 54.7589 67.8807 51.3314 74.9992C54.7589 82.1178 58.7137 88.9702 63.1627 95.4992C71.0433 96.0892 78.9571 96.0892 86.8377 95.4992ZM94.8627 94.6805C98.7065 94.1805 102.363 93.5367 105.8 92.7805C104.676 89.254 103.4 85.7778 101.975 82.3617C99.7751 86.5622 97.4023 90.6699 94.8627 94.6742V94.6805ZM55.1377 55.3117C51.2939 55.8117 47.6377 56.4555 44.2002 57.2117C45.2627 60.5617 46.5377 64.0492 48.0252 67.6305C50.2252 63.43 52.5981 59.3161 55.1377 55.3117ZM44.2002 92.7742C47.6377 93.5305 51.2939 94.168 55.1377 94.6742C52.5981 90.6699 50.2252 86.5622 48.0252 82.3617C46.5377 85.9367 45.2627 89.4242 44.2002 92.7742ZM38.0877 91.243C39.7189 86.0305 41.8377 80.568 44.4002 74.993C41.8377 69.418 39.7189 63.9555 38.0877 58.743C24.0752 62.7242 15.1064 68.768 15.1064 74.993C15.1064 81.218 24.0752 87.2617 38.0877 91.243ZM105.8 57.2117C102.363 56.4555 98.7065 55.818 94.8627 55.3117C97.4023 59.3161 99.7752 63.4237 101.975 67.6242C103.463 64.0492 104.738 60.5617 105.8 57.2117ZM111.913 58.743C110.281 63.9555 108.163 69.418 105.6 74.993C108.163 80.568 110.281 86.0305 111.913 91.243C125.925 87.2617 134.894 81.218 134.894 74.993C134.894 68.768 125.925 62.7242 111.913 58.743ZM75.0002 86.7492C73.4572 86.7492 71.9292 86.4453 70.5037 85.8548C69.0781 85.2643 67.7828 84.3988 66.6917 83.3077C65.6006 82.2166 64.7351 80.9213 64.1446 79.4958C63.5541 78.0702 63.2502 76.5423 63.2502 74.9992C63.2502 73.4562 63.5541 71.9283 64.1446 70.5027C64.7351 69.0771 65.6006 67.7818 66.6917 66.6907C67.7828 65.5996 69.0781 64.7341 70.5037 64.1436C71.9292 63.5531 73.4572 63.2492 75.0002 63.2492C78.1165 63.2492 81.1051 64.4872 83.3087 66.6907C85.5123 68.8943 86.7502 71.8829 86.7502 74.9992C86.7502 78.1155 85.5123 81.1042 83.3087 83.3077C81.1051 85.5113 78.1165 86.7492 75.0002 86.7492Z" fill="white"/>
</svg>
