<svg width="150" height="150" viewBox="0 0 150 150" fill="none" xmlns="http://www.w3.org/2000/svg">
<path d="M54.8124 99.9374C48.9999 99.9374 43.5001 97.6875 39.3126 93.5625C35.1251 89.375 32.8125 83.875 32.8125 77.9375V60.4376C32.8125 54.6876 37.5001 50 43.2501 50H66.3124C78.4374 50 88.3125 59.8749 88.3125 71.9999V89.3126C88.3125 95.0626 83.625 99.7499 77.9375 99.7499L54.9376 99.9374C54.9376 99.9374 54.8749 99.9374 54.8124 99.9374ZM43.2501 59.4376C42.6251 59.4376 42.1875 59.9375 42.1875 60.5V78.0001C42.1875 81.3751 43.5 84.5625 45.9375 86.9375C48.3125 89.3125 51.5626 90.8125 54.9376 90.625L77.9375 90.4375C78.5 90.4375 79.0001 89.9374 79.0001 89.3749V72.0625C79.0001 65.125 73.3125 59.4376 66.375 59.4376H43.2501Z" fill="white"/>
<path d="M112.5 97.0632C111.562 97.0632 110.687 96.8132 109.875 96.2507L92.5624 84.6881C91.2499 83.8131 90.5 82.3756 90.5 80.8131V69.2506C90.5 67.6881 91.3124 66.1881 92.5624 65.3756L109.875 53.8131C111.312 52.8756 113.187 52.7507 114.687 53.5632C116.187 54.3757 117.187 55.9383 117.187 57.6883V92.3131C117.187 94.0631 116.25 95.6256 114.687 96.4381C114 96.8756 113.25 97.0632 112.5 97.0632ZM99.875 78.3132L107.812 83.6257V66.5008L99.875 71.8131V78.3132Z" fill="white"/>
<path d="M75 142.188C37.9375 142.188 7.8125 112.062 7.8125 75C7.8125 37.9375 37.9375 7.8125 75 7.8125C112.062 7.8125 142.188 37.9375 142.188 75C142.188 112.062 112.062 142.188 75 142.188ZM75 17.1875C43.125 17.1875 17.1875 43.125 17.1875 75C17.1875 106.875 43.125 132.812 75 132.812C106.875 132.812 132.812 106.875 132.812 75C132.812 43.125 106.875 17.1875 75 17.1875Z" fill="white"/>
</svg>
