<svg width="100" height="100" viewBox="0 0 100 100" fill="none" xmlns="http://www.w3.org/2000/svg">
<path d="M55.9089 70.2705V53.3643C55.9089 50.2001 55.9089 51.2447 55.9089 50.2001C55.9089 49.3447 55.9089 47.1538 55.9089 44.2153C55.9089 41.2769 55.9089 40.8357 55.9089 40.8357V39.4771C55.9089 21.1522 83.9041 21.8666 83.9041 39.4771V40.8357V53.3643V70.2705M55.9089 70.2705L48.4219 74H64.3282M55.9089 70.2705L62.4726 67.1509M83.9041 70.2705L91.0019 74H75.4382M83.9041 70.2705L77.6548 67.1509M62.4726 61.2639C59.997 58.8672 59.1483 55.4859 59.0902 53.3643V40.8357C59.4002 38.7057 61.0283 34.2242 65.0612 33.3386C69.6422 36.2771 75.0455 41.037 80.8207 40.8357V53.3643C80.8207 55.4859 80.0647 58.8672 77.6548 61.2639M62.4726 61.2639C64.1657 62.9031 66.6197 64.0816 70.1023 64.0816C73.5849 64.0816 76.0066 62.9031 77.6548 61.2639M62.4726 61.2639V67.1509M62.4726 67.1509L64.3282 74M64.3282 74H75.4382M77.6548 61.2639V67.1509M77.6548 67.1509L75.4382 74" stroke="white" stroke-width="1.5"/>
<path d="M14.0693 42.6911V54.3148C14.1423 56.8388 15.3068 59.3206 17.2257 62.47M14.0693 42.6911C14.4585 40.157 15.1999 35.6842 20.2639 34.6306C26.8061 34.6306 32.1161 42.3964 39.3679 42.157M14.0693 42.6911C14.0693 37.1945 11.2888 33.2072 13.5869 30.3362C15.1221 28.4183 19.3975 24.7415 25.7274 27.5395C30.6779 25.3011 36.7954 27.5834 38.6961 29.0054C42.1353 31.6915 45.0423 35.7287 45.0423 41.0747C44.6804 42.6911 40.5819 42.1667 39.3679 42.157M39.3679 42.157V54.3148C39.0769 57.7885 38.6961 59.5796 36.5951 62.47M17.2257 62.47C20.5963 67.0654 22.4331 67.0654 26.8061 67.0654C31.1791 67.0654 33.2547 67.0654 36.5951 62.47M17.2257 62.47V68.2343M17.2257 73.9987H36.2896M17.2257 73.9987H9.00098L17.2257 68.2343M17.2257 73.9987V68.2343M36.5951 62.47L36.4424 68.2343M36.2896 73.9987H44.4791L36.4424 68.2343M36.2896 73.9987L36.4424 68.2343" stroke="white" stroke-width="1.5"/>
</svg>
