<svg width="100" height="100" viewBox="0 0 100 100" fill="none" xmlns="http://www.w3.org/2000/svg">
<path d="M37.7731 73.8953C35.368 70.2815 32.5412 67.4336 32.4497 64.5374V47.4334C32.9375 44.5255 35.5 38.4075 41.8473 37.1985C49.0572 41.2101 57.5612 47.7082 66.6507 47.4334V64.5374C66.6507 67.4336 64.8933 69.8331 61.6679 73.8953M37.7731 73.8953C41.9978 79.1685 44.3002 79.1685 49.7813 79.1685C55.2624 79.1685 57.4811 79.1685 61.6679 73.8953M37.7731 73.8953V83.3586M37.7731 83.3586H61.6679M37.7731 83.3586H24.796L26.4087 64.5374V45.5786C26.4087 39.2714 30.268 34.6163 34.4938 31.5665M61.6679 73.8953V83.3586M61.6679 83.3586H73.7137L72.6386 64.5374V45.5786C72.6386 39.4442 68.995 34.8115 64.6842 31.7292M34.4938 31.5665L49.7813 36.7105L64.6842 31.7292M34.4938 31.5665L19.5996 26.5549L49.67 16.4369L49.7813 16.3994L80.1645 26.5549L64.6842 31.7292" stroke="white" stroke-width="2"/>
</svg>
