<svg width="100" height="100" viewBox="0 0 100 100" fill="none" xmlns="http://www.w3.org/2000/svg">
<path d="M49.5013 76.7995C48.6888 76.7995 47.8763 76.6099 47.1992 76.2308C42.1346 73.4683 33.2242 70.5433 27.6451 69.812L26.8596 69.7037C23.3117 69.2703 20.3867 65.9391 20.3867 62.337V29.6203C20.3867 27.4808 21.2263 25.5308 22.7701 24.1224C24.3138 22.7141 26.318 22.037 28.4305 22.2266C34.3888 22.687 43.3805 25.6662 48.4721 28.862L49.1221 29.2412C49.3117 29.3495 49.718 29.3495 49.8805 29.2683L50.3138 28.9974C55.4055 25.8016 64.3971 22.7683 70.3826 22.2537C70.4367 22.2537 70.6534 22.2537 70.7076 22.2537C72.6846 22.0641 74.7159 22.7683 76.2326 24.1766C77.7763 25.5849 78.6159 27.5349 78.6159 29.6745V62.3641C78.6159 65.9933 75.6909 69.2974 72.1159 69.7308L71.2221 69.8391C65.643 70.5703 56.7055 73.5224 51.7492 76.2578C51.0992 76.637 50.3138 76.7995 49.5013 76.7995ZM27.7805 26.262C26.9138 26.262 26.1284 26.5599 25.5055 27.1287C24.8284 27.7516 24.4492 28.6453 24.4492 29.6203V62.337C24.4492 63.9349 25.8305 65.4787 27.3742 65.6953L28.1867 65.8037C34.2805 66.6162 43.6242 69.6766 49.0409 72.6287C49.2846 72.737 49.6367 72.7641 49.7721 72.7099C55.1888 69.7037 64.5867 66.6162 70.7076 65.8037L71.6284 65.6953C73.1721 65.5058 74.5534 63.9349 74.5534 62.337V29.6474C74.5534 28.6453 74.1742 27.7787 73.4971 27.1287C72.793 26.5058 71.8992 26.2078 70.8971 26.262C70.843 26.262 70.6263 26.262 70.5721 26.262C65.3992 26.7224 57.0576 29.512 52.5076 32.3558L52.0742 32.6537C50.5846 33.5745 48.4721 33.5745 47.0367 32.6808L46.3867 32.3016C41.7555 29.4578 33.4138 26.6953 28.1055 26.262C27.9971 26.262 27.8888 26.262 27.7805 26.262Z" fill="white"/>
<path d="M49.5 74.5254C48.3896 74.5254 47.4688 73.6046 47.4688 72.4941V31.8691C47.4688 30.7587 48.3896 29.8379 49.5 29.8379C50.6104 29.8379 51.5312 30.7587 51.5312 31.8691V72.4941C51.5312 73.6316 50.6104 74.5254 49.5 74.5254Z" fill="white"/>
<path d="M37.9883 42.0254H31.8945C30.7841 42.0254 29.8633 41.1046 29.8633 39.9941C29.8633 38.8837 30.7841 37.9629 31.8945 37.9629H37.9883C39.0987 37.9629 40.0195 38.8837 40.0195 39.9941C40.0195 41.1046 39.0987 42.0254 37.9883 42.0254Z" fill="white"/>
<path d="M40.0195 50.1504H31.8945C30.7841 50.1504 29.8633 49.2296 29.8633 48.1191C29.8633 47.0087 30.7841 46.0879 31.8945 46.0879H40.0195C41.1299 46.0879 42.0508 47.0087 42.0508 48.1191C42.0508 49.2296 41.1299 50.1504 40.0195 50.1504Z" fill="white"/>
</svg>
