<svg width="23" height="24" viewBox="0 0 23 24" fill="none" xmlns="http://www.w3.org/2000/svg">
<path d="M22.023 3.2929C21.9235 2.62376 21.7012 2.01143 21.3907 1.50558C21.3252 1.39536 21.2569 1.29666 21.1827 1.19795C20.6327 0.460211 19.8607 0 19.0173 0H3.06279C2.21939 0 1.45013 0.460211 0.897478 1.19795C0.823518 1.29666 0.755121 1.39536 0.689484 1.50558C0.378854 2.01137 0.156544 2.62376 0.0597714 3.2929C0.0200101 3.55115 0 3.81803 0 4.08785V19.0426C0 19.6163 0.0911661 20.1677 0.253748 20.6657C0.404556 21.1412 0.626909 21.5714 0.897434 21.9321C0.966 22.0233 1.03409 22.1072 1.1084 22.1907C1.63823 22.7763 2.32215 23.13 3.06279 23.13H19.0173C19.7581 23.13 20.4451 22.7763 20.9718 22.187C21.0459 22.1072 21.1144 22.0233 21.1827 21.9321C21.4531 21.5714 21.6754 21.1412 21.8294 20.6657V20.6621C21.9919 20.164 22.08 19.6162 22.08 19.0426V4.08785C22.0801 3.81803 22.0603 3.55115 22.023 3.2929ZM2.0057 2.67682C2.27933 2.31204 2.6468 2.09121 3.06279 2.09121H19.0173C19.4333 2.09121 19.8039 2.31204 20.0743 2.67682C20.1228 2.74181 20.1683 2.81422 20.2086 2.88616L11.8463 12.6127C11.6156 12.8825 11.3308 13.0157 11.04 13.0157C10.7522 13.0157 10.4675 12.8825 10.2338 12.6127L1.87473 2.88201C1.91174 2.81006 1.95732 2.74181 2.0057 2.67682ZM1.56691 19.0426V5.04603L7.61841 12.0917L1.56997 19.1298C1.56691 19.1031 1.56691 19.073 1.56691 19.0426ZM19.0173 21.0384H3.06279C2.79192 21.0384 2.53847 20.9434 2.32215 20.7764L8.70372 13.3541L9.29951 14.0458C9.79807 14.6241 10.422 14.9169 11.04 14.9169C11.6613 14.9169 12.2852 14.6241 12.7837 14.0458L13.3792 13.3541L19.7582 20.7764C19.5415 20.9434 19.2881 21.0384 19.0173 21.0384ZM20.5131 19.0426C20.5131 19.073 20.5131 19.1031 20.5102 19.1298L14.4618 12.0957L20.5131 5.04976V19.0426Z" fill="black"/>
</svg>
