<svg width="16" height="16" viewBox="0 0 16 16" fill="none" xmlns="http://www.w3.org/2000/svg">
<path d="M15.5 0.9C15.5 0.679086 15.3209 0.5 15.1 0.5H0.9C0.679086 0.5 0.5 0.679086 0.5 0.9V1.76667C0.5 1.98758 0.679086 2.16667 0.9 2.16667H15.1C15.3209 2.16667 15.5 1.98758 15.5 1.76667V0.9Z" fill="white"/>
<path d="M11.3333 7.56667C11.3333 7.34575 11.1542 7.16667 10.9333 7.16667H0.9C0.679086 7.16667 0.5 7.34575 0.5 7.56667V8.43333C0.5 8.65425 0.679085 8.83333 0.899999 8.83333H10.9333C11.1542 8.83333 11.3333 8.65425 11.3333 8.43333V7.56667Z" fill="white"/>
<path d="M0.5 14.2333C0.5 14.0124 0.679086 13.8333 0.9 13.8333H15.1C15.3209 13.8333 15.5 14.0124 15.5 14.2333V15.1C15.5 15.3209 15.3209 15.5 15.1 15.5H0.9C0.679086 15.5 0.5 15.3209 0.5 15.1V14.2333Z" fill="white"/>
</svg>
