<svg width="98" height="20" viewBox="0 0 98 20" fill="none" xmlns="http://www.w3.org/2000/svg">
<path d="M6.75031 16.5919C5.27368 16.5919 4.03813 16.2858 3.03362 15.6633C2.02911 15.0409 1.27573 14.1838 0.763428 13.0817C0.251128 11.9797 0 10.7042 0 9.24498C0 7.78579 0.261173 6.50008 0.783518 5.38784C1.30586 4.27559 2.06929 3.39804 3.0738 2.76539C4.07831 2.13273 5.30381 1.81641 6.75031 1.81641C7.82513 1.81641 8.76937 2.00008 9.58303 2.36743C10.3967 2.73477 11.0697 3.25518 11.582 3.92865C12.0943 4.60212 12.4258 5.42865 12.5765 6.40824H10.1456C9.95469 5.71437 9.57298 5.17355 9.00041 4.77559C8.42784 4.37763 7.67446 4.18375 6.75031 4.18375C5.7458 4.18375 4.93214 4.41845 4.31939 4.89804C3.70664 5.37763 3.25461 5.98988 2.98339 6.73477C2.71218 7.47967 2.57155 8.28579 2.57155 9.14294C2.57155 10.0001 2.71218 10.8572 3.00348 11.6327C3.29479 12.4082 3.74682 13.0307 4.37966 13.5103C5.01251 13.9899 5.81611 14.2246 6.81058 14.2246C7.42333 14.2246 7.96576 14.1327 8.42784 13.9593C8.88991 13.7858 9.28167 13.5307 9.59307 13.194C9.90447 12.8572 10.1255 12.4695 10.246 12.0205H12.7975C12.6367 12.9899 12.2751 13.8062 11.7226 14.4899C11.1702 15.1735 10.467 15.694 9.61316 16.0511C8.75933 16.4082 7.80504 16.5919 6.75031 16.5919Z" fill="white"/>
<path d="M19.5076 16.5715C18.4227 16.5715 17.4885 16.347 16.705 15.898C15.9215 15.449 15.3188 14.8062 14.8969 13.9796C14.475 13.1531 14.264 12.1735 14.264 11.0613C14.264 9.94903 14.475 8.95923 14.9069 8.1327C15.3389 7.30617 15.9416 6.66331 16.715 6.20413C17.4885 5.74495 18.4227 5.51025 19.5076 5.51025C20.5925 5.51025 21.5066 5.74495 22.28 6.20413C23.0535 6.66331 23.6562 7.31638 24.0681 8.15311C24.4799 8.98985 24.6909 9.96944 24.6909 11.1021C24.6909 12.2347 24.49 13.1633 24.0781 13.9898C23.6663 14.8164 23.0736 15.449 22.3001 15.898C21.5266 16.347 20.5925 16.5715 19.5076 16.5715ZM19.4875 14.3062C20.1605 14.3062 20.6929 14.1531 21.1048 13.8572C21.5166 13.5613 21.8079 13.1633 21.9988 12.6735C22.1896 12.1837 22.28 11.6531 22.28 11.0817C22.28 10.5103 22.1896 9.96944 21.9988 9.46944C21.8079 8.96944 21.5166 8.56127 21.1048 8.25515C20.6929 7.94903 20.1605 7.79597 19.4875 7.79597C18.8145 7.79597 18.272 7.94903 17.8602 8.25515C17.4483 8.56127 17.147 8.95923 16.9561 9.45923C16.7653 9.95923 16.6749 10.5 16.6749 11.0817C16.6749 11.6633 16.7753 12.1837 16.9662 12.6837C17.157 13.1837 17.4584 13.5715 17.8702 13.8674C18.2821 14.1633 18.8145 14.3062 19.4875 14.3062Z" fill="white"/>
<path d="M30.9791 16.5714C29.9042 16.5714 29.0203 16.3265 28.3272 15.8265C27.6341 15.3265 27.1117 14.6633 26.7702 13.8367C26.4286 13.0102 26.2579 12.0816 26.2579 11.0612C26.2579 10.0408 26.4387 9.05102 26.8003 8.21429C27.1619 7.37755 27.7044 6.71429 28.4276 6.23469C29.1509 5.7551 30.0549 5.5102 31.1398 5.5102C31.5416 5.5102 31.9334 5.55102 32.3151 5.64286C32.6968 5.73469 33.0584 5.86735 33.3999 6.05102C33.7415 6.23469 34.0227 6.47959 34.2538 6.77551V2H36.7048V16.4286H34.3341L34.294 15.0816C34.0428 15.4184 33.7415 15.7041 33.3999 15.9184C33.0584 16.1327 32.6767 16.2959 32.2648 16.4082C31.853 16.5204 31.4211 16.5714 30.9791 16.5714ZM31.4411 14.3265C32.084 14.3265 32.6164 14.1735 33.0283 13.8673C33.4401 13.5612 33.7515 13.1531 33.9625 12.6429C34.1734 12.1327 34.2739 11.5918 34.2739 11.0204C34.2739 10.4184 34.1734 9.87755 33.9625 9.38775C33.7515 8.89796 33.4401 8.5 33.0283 8.20408C32.6164 7.90816 32.084 7.7551 31.4411 7.7551C30.7581 7.7551 30.2156 7.90816 29.8239 8.22449C29.4321 8.54082 29.1408 8.94898 28.96 9.45918C28.7792 9.96939 28.6888 10.5204 28.6888 11.102C28.6888 11.5408 28.739 11.949 28.8395 12.3367C28.9399 12.7245 29.1006 13.0714 29.3116 13.3673C29.5225 13.6633 29.8038 13.898 30.1554 14.0714C30.507 14.2449 30.9288 14.3265 31.4411 14.3265Z" fill="white"/>
<path d="M43.8167 16.5715C42.7218 16.5715 41.7876 16.3368 41.0142 15.8776C40.2407 15.4184 39.6581 14.7756 39.2663 13.949C38.8745 13.1225 38.6736 12.1735 38.6736 11.0817C38.6736 9.98985 38.8745 9.03066 39.2864 8.19393C39.6982 7.35719 40.2809 6.70413 41.0543 6.22454C41.8278 5.74495 42.752 5.51025 43.8368 5.51025C44.6404 5.51025 45.3436 5.65311 45.9463 5.94903C46.549 6.24495 47.0513 6.64291 47.4631 7.14291C47.875 7.64291 48.1763 8.21434 48.3772 8.85719C48.5781 9.50005 48.6685 10.1735 48.6585 10.8776C48.6484 11.0409 48.6283 11.2041 48.6183 11.3572C48.6083 11.5103 48.5882 11.6837 48.558 11.8572H41.1246C41.1648 12.3368 41.2854 12.7654 41.4963 13.1633C41.7073 13.5613 41.9986 13.8674 42.3803 14.1021C42.762 14.3368 43.2442 14.449 43.8167 14.449C44.1482 14.449 44.4697 14.4082 44.7811 14.3164C45.0925 14.2245 45.3637 14.0919 45.5947 13.9184C45.8258 13.7449 45.9865 13.5205 46.0668 13.2449H48.5178C48.3471 14.0205 48.0256 14.6531 47.5535 15.1429C47.0814 15.6327 46.5289 15.9898 45.876 16.2245C45.223 16.4592 44.54 16.5715 43.8167 16.5715ZM41.1648 10.0001H46.2677C46.2677 9.55107 46.1673 9.14291 45.9664 8.77556C45.7655 8.40821 45.4842 8.1225 45.1126 7.90821C44.7409 7.69393 44.2989 7.59189 43.7766 7.59189C43.214 7.59189 42.7419 7.70413 42.3702 7.93883C41.9986 8.17352 41.7073 8.46944 41.5064 8.83678C41.3055 9.20413 41.195 9.59189 41.1648 10.0001Z" fill="white"/>
<path d="M56.7548 16.4286V2H58.5027V14.8163H66.2977V16.4286H56.7548Z" fill="white"/>
<path d="M68.7286 4.08151C68.377 4.08151 68.1058 3.96927 67.8948 3.75498C67.6839 3.5407 67.5834 3.25498 67.5834 2.91825C67.5834 2.58151 67.6939 2.306 67.9049 2.09172C68.1158 1.87743 68.3971 1.77539 68.7286 1.77539C69.04 1.77539 69.3112 1.88764 69.5422 2.10192C69.7733 2.31621 69.8938 2.59172 69.8938 2.91825C69.8938 3.24478 69.7833 3.5407 69.5523 3.75498C69.3212 3.96927 69.05 4.08151 68.7286 4.08151ZM67.8848 16.4285V5.67335H69.5925V16.4285H67.8848Z" fill="white"/>
<path d="M73.3092 16.4284V7.20389H71.5814V5.67328H73.3092V4.53042C73.3092 3.7243 73.4197 3.07124 73.6407 2.56104C73.8617 2.05083 74.2132 1.67328 74.7054 1.42838C75.1977 1.18348 75.8405 1.06104 76.6442 1.06104H77.8496V2.59165H76.825C76.3428 2.59165 75.9711 2.67328 75.71 2.83655C75.4488 2.99981 75.268 3.24471 75.1675 3.56104C75.0671 3.87736 75.0168 4.27532 75.0168 4.7345V5.67328H77.8496V7.20389H75.0168V16.4284H73.3092Z" fill="white"/>
<path d="M84.0172 16.5508C82.8922 16.5508 81.958 16.3161 81.2247 15.8467C80.4914 15.3773 79.9389 14.7243 79.5773 13.8977C79.2157 13.0712 79.0349 12.1222 79.0349 11.061C79.0349 9.99976 79.2257 9.04058 79.6074 8.21405C79.9891 7.38752 80.5517 6.74466 81.285 6.26507C82.0182 5.78547 82.9223 5.55078 83.9971 5.55078C84.8309 5.55078 85.5441 5.71405 86.1367 6.03037C86.7294 6.3467 87.2216 6.77527 87.6134 7.30588C88.0051 7.8365 88.2864 8.41813 88.4572 9.05078C88.6279 9.68343 88.7083 10.3161 88.6781 10.9589C88.6681 11.0814 88.6581 11.2038 88.648 11.3263C88.638 11.4487 88.6279 11.5712 88.6179 11.6936H80.7626C80.8128 12.3161 80.9736 12.8875 81.2247 13.3875C81.4758 13.8875 81.8374 14.2855 82.3096 14.5814C82.7817 14.8773 83.3643 15.0202 84.0574 15.0202C84.409 15.0202 84.7606 14.9794 85.1121 14.8875C85.4637 14.7957 85.7852 14.6426 86.0765 14.4283C86.3678 14.214 86.5687 13.9181 86.6892 13.5508H88.4371C88.2763 14.2447 87.975 14.8161 87.533 15.2549C87.091 15.6936 86.5586 16.0202 85.9459 16.2345C85.3331 16.4487 84.6902 16.5508 84.0172 16.5508ZM80.8028 10.1834H86.9303C86.9203 9.57119 86.7796 9.03037 86.5285 8.57119C86.2774 8.11201 85.9258 7.74466 85.4939 7.48956C85.0619 7.23445 84.5396 7.1018 83.9369 7.1018C83.2839 7.1018 82.7315 7.24466 82.2794 7.53037C81.8274 7.81609 81.4859 8.19364 81.2448 8.65282C81.0037 9.11201 80.853 9.62221 80.8028 10.1834Z" fill="white"/>
<path d="M96.8549 20V0H98V20H96.8549Z" fill="white"/>
</svg>
