<svg width="16" height="16" viewBox="0 0 16 16" fill="none" xmlns="http://www.w3.org/2000/svg">
<path fill-rule="evenodd" clip-rule="evenodd" d="M0 6.66667C0 10.3486 2.98477 13.3333 6.66667 13.3333C8.23623 13.3333 9.67911 12.7909 10.8181 11.8833C10.891 11.8252 10.9963 11.8296 11.0623 11.8956L14.931 15.7643C15.0611 15.8945 15.2722 15.8945 15.4024 15.7643L15.7643 15.4024C15.8945 15.2722 15.8945 15.0611 15.7643 14.931L11.8956 11.0623C11.8296 10.9963 11.8252 10.891 11.8833 10.8181C12.7909 9.67911 13.3333 8.23623 13.3333 6.66667C13.3333 2.98477 10.3486 0 6.66667 0C2.98477 0 0 2.98477 0 6.66667ZM12 6.66667C12 9.61219 9.61219 12 6.66667 12C3.72115 12 1.33333 9.61219 1.33333 6.66667C1.33333 3.72115 3.72115 1.33333 6.66667 1.33333C9.61219 1.33333 12 3.72115 12 6.66667Z" fill="white"/>
</svg>
