<svg width="16" height="16" viewBox="0 0 16 16" fill="none" xmlns="http://www.w3.org/2000/svg">
<path fill-rule="evenodd" clip-rule="evenodd" d="M0.5 1.5C0.5 0.947754 0.947754 0.5 1.5 0.5H6.5C7.05225 0.5 7.5 0.947754 7.5 1.5V6.5C7.5 7.05225 7.05225 7.5 6.5 7.5H1.5C0.947754 7.5 0.5 7.05225 0.5 6.5V1.5ZM2.21429 1.5C1.81982 1.5 1.5 1.81982 1.5 2.21429V5.78571C1.5 6.18018 1.81982 6.5 2.21429 6.5H5.78571C6.18018 6.5 6.5 6.18018 6.5 5.78571V2.21429C6.5 1.81982 6.18018 1.5 5.78571 1.5H2.21429Z" fill="white"/>
<path fill-rule="evenodd" clip-rule="evenodd" d="M8.5 0.5H14.5C15.0522 0.5 15.5 0.947754 15.5 1.5V6.5C15.5 7.05225 15.0522 7.5 14.5 7.5H9.5C8.94775 7.5 8.5 7.05225 8.5 6.5V0.5ZM13.7857 1.5H9.5V5.78571C9.5 6.18018 9.81982 6.5 10.2143 6.5H13.7857C14.1802 6.5 14.5 6.18018 14.5 5.78571V2.21429C14.5 1.81982 14.1802 1.5 13.7857 1.5Z" fill="white"/>
<path fill-rule="evenodd" clip-rule="evenodd" d="M8.5 9.5C8.5 8.94775 8.94775 8.5 9.5 8.5H15.5V14.5C15.5 15.0522 15.0522 15.5 14.5 15.5H8.5V9.5ZM10.2143 9.5C9.81982 9.5 9.5 9.81982 9.5 10.2143V14.5H13.7857C14.1802 14.5 14.5 14.1802 14.5 13.7857V9.5H10.2143Z" fill="white"/>
<path fill-rule="evenodd" clip-rule="evenodd" d="M6.5 8.5H0.5V14.5C0.5 15.0522 0.947754 15.5 1.5 15.5H7.5V9.5C7.5 8.94775 7.05225 8.5 6.5 8.5ZM1.5 9.5H5.78571C6.18018 9.5 6.5 9.81982 6.5 10.2143V14.5H2.21429C1.81982 14.5 1.5 14.1802 1.5 13.7857V9.5Z" fill="white"/>
<path d="M13.5 10.5H10.9286C10.6919 10.5 10.5 10.6919 10.5 10.9286V13.5H13.0714C13.3081 13.5 13.5 13.3081 13.5 13.0714V10.5Z" fill="white"/>
<path d="M2.92857 2.5C2.69189 2.5 2.5 2.69189 2.5 2.92857V5.07143C2.5 5.30811 2.69189 5.5 2.92857 5.5H5.07143C5.30811 5.5 5.5 5.30811 5.5 5.07143V2.92857C5.5 2.69189 5.30811 2.5 5.07143 2.5H2.92857Z" fill="white"/>
</svg>
