<svg width="70" height="40" viewBox="0 0 70 40" fill="none" xmlns="http://www.w3.org/2000/svg">
<path d="M41.1348 35.5247V22.4848C41.1348 20.0442 41.1348 20.8499 41.1348 20.0442C41.1348 19.3844 41.1348 17.6945 41.1348 15.4281C41.1348 13.1616 41.1348 12.8213 41.1348 12.8213V11.7734C41.1348 -2.36074 63.2848 -1.80969 63.2848 11.7734V12.8213V22.4848V35.5247M41.1348 35.5247L35.2109 38.4013H47.7962M41.1348 35.5247L46.328 33.1185M63.2848 35.5247L68.9007 38.4013H56.5865M63.2848 35.5247L58.3403 33.1185M46.328 28.5779C44.3693 26.7293 43.6978 24.1212 43.6518 22.4848V12.8213C43.8971 11.1784 45.1853 7.72183 48.3761 7.03879C52.0007 9.30524 56.2758 12.9766 60.8452 12.8213V22.4848C60.8452 24.1212 60.247 26.7293 58.3403 28.5779M46.328 28.5779C47.6676 29.8421 49.6092 30.7512 52.3647 30.7512C55.1201 30.7512 57.0362 29.8421 58.3403 28.5779M46.328 28.5779V33.1185M46.328 33.1185L47.7962 38.4013M47.7962 38.4013H56.5865M58.3403 28.5779V33.1185M58.3403 33.1185L56.5865 38.4013" stroke="white" stroke-width="2"/>
<path d="M8.03158 14.2534V23.219C8.08933 25.1657 9.01072 27.08 10.529 29.5091M8.03158 14.2534C8.33953 12.2988 8.92614 8.84896 12.9328 8.03633C18.1091 8.03633 22.3104 14.0261 28.0481 13.8415M8.03158 14.2534C8.03158 10.0139 5.83161 6.93842 7.64991 4.72399C8.86458 3.24469 12.2473 0.408699 17.2556 2.56687C21.1725 0.840352 26.0127 2.60074 27.5165 3.6975C30.2377 5.76934 32.5377 8.8833 32.5377 13.0067C32.2514 14.2534 29.0086 13.849 28.0481 13.8415M28.0481 13.8415V23.219C27.8178 25.8982 27.5165 27.2797 25.8542 29.5091M10.529 29.5091C13.1958 33.0536 14.6491 33.0536 18.1091 33.0536C21.569 33.0536 23.2113 33.0536 25.8542 29.5091M10.529 29.5091V33.9552M10.529 38.4013H25.6125M10.529 38.4013H4.02148L10.529 33.9552M10.529 38.4013V33.9552M25.8542 29.5091L25.7334 33.9552M25.6125 38.4013H32.0921L25.7334 33.9552M25.6125 38.4013L25.7334 33.9552" stroke="white" stroke-width="2"/>
</svg>
