<svg width="16" height="31" viewBox="0 0 16 31" fill="none" xmlns="http://www.w3.org/2000/svg">
<path d="M1.80416 30.2273C1.47267 30.2273 1.14117 30.1058 0.879471 29.8453C0.37351 29.3419 0.37351 28.5085 0.879471 28.005L12.2549 16.6854C13.0923 15.852 13.0923 14.4979 12.2549 13.6645L0.879471 2.34487C0.37351 1.84139 0.37351 1.00804 0.879471 0.504564C1.38543 0.00108296 2.22288 0.00108296 2.72884 0.504564L14.1042 11.8242C14.994 12.7096 15.5 13.9076 15.5 15.175C15.5 16.4423 15.0115 17.6403 14.1042 18.5257L2.72884 29.8453C2.46714 30.0884 2.13565 30.2273 1.80416 30.2273Z" fill="#363636"/>
</svg>
