<svg width="40" height="45" viewBox="0 0 40 45" fill="none" xmlns="http://www.w3.org/2000/svg">
<path d="M7.69227 14.1587V12.9815C7.69227 -2.89751 32.7941 -2.27845 32.7941 12.9815V14.1587M7.69227 14.1587C6.56116 14.1587 4.38595 14.4029 4.38595 16.9491C4.38595 19.4954 4.38595 21.6143 4.38595 22.3555C4.44396 23.2421 5.18643 25.0151 7.69227 25.0151M7.69227 14.1587H10.52M7.69227 25.0151V39.6647M7.69227 25.0151H10.52M7.69227 39.6647L1.03613 43.1527H15.175M7.69227 39.6647L13.5266 36.9615M32.5766 39.6647L38.8847 43.1527H25.0504M32.5766 39.6647V25.0151M32.5766 39.6647L27.0217 36.9615M32.5766 25.0151C33.7222 25.0006 36.0135 24.4483 36.0135 22.3555C36.0135 20.2627 35.9293 17.6322 35.9293 16.7021C35.9003 15.7719 35.1869 14.1587 32.7941 14.1587M32.5766 25.0151H29.8359M32.7941 14.1587H29.8359M10.52 14.1587V25.0151M10.52 14.1587C10.7956 12.313 12.2428 8.42971 15.8275 7.66235C19.8995 10.2086 24.7024 14.3331 29.8359 14.1587M10.52 25.0151C10.5717 26.8535 11.3261 29.7835 13.5266 31.8603M29.8359 14.1587V25.0151M29.8359 25.0151C28.6323 26.3231 25.2331 28.6339 21.4396 28.1107M29.8359 25.0151C29.8359 26.8535 29.1639 29.7835 27.0217 31.8603M13.5266 31.8603C15.0315 33.2807 17.2129 34.3019 20.3085 34.3019C23.4041 34.3019 25.5567 33.2807 27.0217 31.8603M13.5266 31.8603V36.9615M13.5266 36.9615L15.175 43.1527M15.175 43.1527H25.0504M27.0217 31.8603V36.9615M27.0217 36.9615L25.0504 43.1527" stroke="white" stroke-width="2"/>
</svg>
