<svg width="46" height="45" viewBox="0 0 46 45" fill="none" xmlns="http://www.w3.org/2000/svg">
<path d="M15.3946 37.1913C13.8914 34.9326 12.1246 33.1527 12.0674 31.3426V20.6526C12.3723 18.8352 13.9739 15.0114 17.9409 14.2558C22.4471 16.763 27.7622 20.8243 33.4431 20.6526V31.3426C33.4431 33.1527 32.3447 34.6524 30.3288 37.1913M15.3946 37.1913C18.035 40.487 19.474 40.487 22.8997 40.487C26.3254 40.487 27.7121 40.487 30.3288 37.1913M15.3946 37.1913V43.1058M15.3946 43.1058H30.3288M15.3946 43.1058H7.28388L8.2918 31.3426V19.4934C8.2918 15.5513 10.7039 12.6419 13.345 10.7358M30.3288 37.1913V43.1058M30.3288 43.1058H37.8575L37.1855 31.3426V19.4934C37.1855 15.6593 34.9082 12.7639 32.214 10.8375M13.345 10.7358L22.8997 13.9508L32.214 10.8375M13.345 10.7358L4.03613 7.60355L22.8301 1.27975L22.8997 1.25635L41.8892 7.60355L32.214 10.8375" stroke="white" stroke-width="2"/>
</svg>
